<svg xmlns="http://www.w3.org/2000/svg" viewBox="0 0 512 512" role="img" aria-label="Movement Practice">
  <defs><radialGradient id="tileGlow" cx="50%" cy="42%" r="65%"><stop offset="0%" stop-color="#1b221d"/><stop offset="60%" stop-color="#111613"/><stop offset="100%" stop-color="#0d1210"/></radialGradient></defs>
  <rect width="512" height="512" rx="112" fill="#111613"/>
  <rect width="512" height="512" rx="112" fill="url(#tileGlow)"/>
  <g fill="none" stroke-linecap="round">
    <circle cx="256" cy="256" r="162" stroke="#b89458" stroke-width="3" opacity="0.9"/>
    <g stroke="#b89458" opacity="0.92">
    <line x1="256.0" y1="114.0" x2="256.0" y2="94.0" stroke-width="4"/>
    <line x1="271.7" y1="106.8" x2="272.9" y2="94.9" stroke-width="2"/>
    <line x1="287.2" y1="109.3" x2="289.7" y2="97.5" stroke-width="2"/>
    <line x1="302.4" y1="113.3" x2="306.1" y2="101.9" stroke-width="2"/>
    <line x1="317.0" y1="119.0" x2="321.9" y2="108.0" stroke-width="2"/>
    <line x1="327.0" y1="133.0" x2="337.0" y2="115.7" stroke-width="4"/>
    <line x1="344.2" y1="134.6" x2="351.2" y2="124.9" stroke-width="2"/>
    <line x1="356.4" y1="144.5" x2="364.4" y2="135.6" stroke-width="2"/>
    <line x1="367.5" y1="155.6" x2="376.4" y2="147.6" stroke-width="2"/>
    <line x1="377.4" y1="167.8" x2="387.1" y2="160.8" stroke-width="2"/>
    <line x1="379.0" y1="185.0" x2="396.3" y2="175.0" stroke-width="4"/>
    <line x1="393.0" y1="195.0" x2="404.0" y2="190.1" stroke-width="2"/>
    <line x1="398.7" y1="209.6" x2="410.1" y2="205.9" stroke-width="2"/>
    <line x1="402.7" y1="224.8" x2="414.5" y2="222.3" stroke-width="2"/>
    <line x1="405.2" y1="240.3" x2="417.1" y2="239.1" stroke-width="2"/>
    <line x1="398.0" y1="256.0" x2="418.0" y2="256.0" stroke-width="4"/>
    <line x1="405.2" y1="271.7" x2="417.1" y2="272.9" stroke-width="2"/>
    <line x1="402.7" y1="287.2" x2="414.5" y2="289.7" stroke-width="2"/>
    <line x1="398.7" y1="302.4" x2="410.1" y2="306.1" stroke-width="2"/>
    <line x1="393.0" y1="317.0" x2="404.0" y2="321.9" stroke-width="2"/>
    <line x1="379.0" y1="327.0" x2="396.3" y2="337.0" stroke-width="4"/>
    <line x1="377.4" y1="344.2" x2="387.1" y2="351.2" stroke-width="2"/>
    <line x1="367.5" y1="356.4" x2="376.4" y2="364.4" stroke-width="2"/>
    <line x1="356.4" y1="367.5" x2="364.4" y2="376.4" stroke-width="2"/>
    <line x1="344.2" y1="377.4" x2="351.2" y2="387.1" stroke-width="2"/>
    <line x1="327.0" y1="379.0" x2="337.0" y2="396.3" stroke-width="4"/>
    <line x1="317.0" y1="393.0" x2="321.9" y2="404.0" stroke-width="2"/>
    <line x1="302.4" y1="398.7" x2="306.1" y2="410.1" stroke-width="2"/>
    <line x1="287.2" y1="402.7" x2="289.7" y2="414.5" stroke-width="2"/>
    <line x1="271.7" y1="405.2" x2="272.9" y2="417.1" stroke-width="2"/>
    <line x1="256.0" y1="398.0" x2="256.0" y2="418.0" stroke-width="4"/>
    <line x1="240.3" y1="405.2" x2="239.1" y2="417.1" stroke-width="2"/>
    <line x1="224.8" y1="402.7" x2="222.3" y2="414.5" stroke-width="2"/>
    <line x1="209.6" y1="398.7" x2="205.9" y2="410.1" stroke-width="2"/>
    <line x1="195.0" y1="393.0" x2="190.1" y2="404.0" stroke-width="2"/>
    <line x1="185.0" y1="379.0" x2="175.0" y2="396.3" stroke-width="4"/>
    <line x1="167.8" y1="377.4" x2="160.8" y2="387.1" stroke-width="2"/>
    <line x1="155.6" y1="367.5" x2="147.6" y2="376.4" stroke-width="2"/>
    <line x1="144.5" y1="356.4" x2="135.6" y2="364.4" stroke-width="2"/>
    <line x1="134.6" y1="344.2" x2="124.9" y2="351.2" stroke-width="2"/>
    <line x1="133.0" y1="327.0" x2="115.7" y2="337.0" stroke-width="4"/>
    <line x1="119.0" y1="317.0" x2="108.0" y2="321.9" stroke-width="2"/>
    <line x1="113.3" y1="302.4" x2="101.9" y2="306.1" stroke-width="2"/>
    <line x1="109.3" y1="287.2" x2="97.5" y2="289.7" stroke-width="2"/>
    <line x1="106.8" y1="271.7" x2="94.9" y2="272.9" stroke-width="2"/>
    <line x1="114.0" y1="256.0" x2="94.0" y2="256.0" stroke-width="4"/>
    <line x1="106.8" y1="240.3" x2="94.9" y2="239.1" stroke-width="2"/>
    <line x1="109.3" y1="224.8" x2="97.5" y2="222.3" stroke-width="2"/>
    <line x1="113.3" y1="209.6" x2="101.9" y2="205.9" stroke-width="2"/>
    <line x1="119.0" y1="195.0" x2="108.0" y2="190.1" stroke-width="2"/>
    <line x1="133.0" y1="185.0" x2="115.7" y2="175.0" stroke-width="4"/>
    <line x1="134.6" y1="167.8" x2="124.9" y2="160.8" stroke-width="2"/>
    <line x1="144.5" y1="155.6" x2="135.6" y2="147.6" stroke-width="2"/>
    <line x1="155.6" y1="144.5" x2="147.6" y2="135.6" stroke-width="2"/>
    <line x1="167.8" y1="134.6" x2="160.8" y2="124.9" stroke-width="2"/>
    <line x1="185.0" y1="133.0" x2="175.0" y2="115.7" stroke-width="4"/>
    <line x1="195.0" y1="119.0" x2="190.1" y2="108.0" stroke-width="2"/>
    <line x1="209.6" y1="113.3" x2="205.9" y2="101.9" stroke-width="2"/>
    <line x1="224.8" y1="109.3" x2="222.3" y2="97.5" stroke-width="2"/>
    <line x1="240.3" y1="106.8" x2="239.1" y2="94.9" stroke-width="2"/>
    </g>
    <circle cx="256" cy="256" r="126" stroke="#71836a" stroke-width="2.5" stroke-dasharray="2 20" opacity="0.85"/>
    <g stroke="#eee5d7" stroke-width="6" opacity="0.96">
    <line x1="124.0" y1="256.0" x2="214.0" y2="256.0"/>
    <line x1="298.0" y1="256.0" x2="388.0" y2="256.0"/>
    <line x1="162.7" y1="162.7" x2="226.3" y2="226.3"/>
    <line x1="285.7" y1="285.7" x2="349.3" y2="349.3"/>
    <line x1="256.0" y1="124.0" x2="256.0" y2="214.0"/>
    <line x1="256.0" y1="298.0" x2="256.0" y2="388.0"/>
    <line x1="349.3" y1="162.7" x2="285.7" y2="226.3"/>
    <line x1="226.3" y1="285.7" x2="162.7" y2="349.3"/>
    </g>
    <circle cx="256" cy="256" r="34" stroke="#b89458" stroke-width="3"/>
    <circle cx="256" cy="256" r="20" stroke="#d0b47a" stroke-width="2" opacity="0.85"/>
  </g>
  <circle cx="256" cy="256" r="9" fill="#171d19"/>
  <circle cx="256" cy="256" r="5" fill="#d0b47a"/>
</svg>
